<svg enable-background="new 0 0 130 130" viewBox="0 0 130 130" xmlns="http://www.w3.org/2000/svg"><path d="m3.51 119.71h122.15v6.6h-122.15z" fill="#662c14"/><path d="m120.57 46.26-23.93-26.37-31.78-11.26-30.12 11.26-25.58 26.37v73.45h111.41z" fill="#e62d27"/><g fill="#f2f2f2"><path d="m63.69 7.47h2.34v38.2h-2.34z"/><path d="m99.32 19.61-1.45-1.86-33.73 27 1.45 1.86z"/><path d="m30.85 19.61 1.45-1.86 33.73 27-1.45 1.86z"/><path d="m9.16 43.57h111.42v3.36h-111.42z"/></g><path d="m9.16 60.7 25.58-26.37 30.12-11.26 31.78 11.26 23.93 26.37v-14.44l-23.93-26.37-31.78-11.26-30.12 11.26-25.58 26.37z" fill="#020203" opacity=".35"/><path d="m3.56 52.52-3.56-3.5 31.39-32.82 33.45-12.51 35.27 12.5 29.89 33.23-3.62 3.43-29.06-32.33-32.43-11.49-30.73 11.48z" fill="#fbb80b"/><path d="m39.31 75.44h51.38v44.27h-51.38z" fill="#f2f2f2"/><path d="m42.08 77.97h45.84v41.74h-45.84z" fill="#582a1a"/><path d="m85.45 119.71-43.37-39.49v-2.25h2.47l43.37 39.49v2.25z" fill="#3b1d13"/><path d="m42.08 117.2 43.62-39.23h2.22v2.5l-43.62 39.24h-2.22z" fill="#3b1d13"/><path d="m64.52 77.97h.96v41.74h-.96z" fill="#1c0d09"/></svg>