<svg enable-background="new 0 0 130 130" viewBox="0 0 130 130" xmlns="http://www.w3.org/2000/svg"><path d="m118.38 115.11c0 8.22-6.67 14.89-14.89 14.89h-76.91c-8.22 0-14.89-6.67-14.89-14.89v-99.54c0-8.22 6.67-14.89 14.89-14.89h76.92c8.22 0 14.89 6.67 14.89 14.89v99.54z" fill="#e8e3d1"/><g fill="#605553"><path d="m103.42 0h-76.92c-8.22 0-14.89 6.67-14.89 14.89v25.59h106.69v-25.59c.01-8.22-6.66-14.89-14.88-14.89z"/><path d="m28.75 55.26h72.57v2.48h-72.57z"/><path d="m28.75 74.15h72.57v2.48h-72.57z"/><path d="m28.75 93.03h72.57v2.48h-72.57z"/><path d="m28.75 111.92h72.57v2.48h-72.57z"/></g><text fill="#fff" font-family="'Roboto-Bold'" font-size="20.9451" transform="translate(21.8485 26.3615)">MANUAL</text></svg>