<?xml version="1.0" encoding="utf-8"?>
<!-- Generator: Adobe Illustrator 25.1.0, SVG Export Plug-In . SVG Version: 6.00 Build 0)  -->
<svg version="1.1" id="Capa_1" xmlns="http://www.w3.org/2000/svg" xmlns:xlink="http://www.w3.org/1999/xlink" x="0px" y="0px"
	 viewBox="0 0 130 130" style="enable-background:new 0 0 130 130;" xml:space="preserve">
<style type="text/css">
	.st0{fill:#66C30F;}
	.st1{fill:#378F00;}
	.st2{fill:#662B13;}
	.st3{fill:#33190F;}
</style>
<g>
	<g>
		<path class="st0" d="M61.21,25.71C70.72,37.74,83.76,12.52,83.74,0C77.45,9.82,52.51,13.57,61.21,25.71z"/>
		<path class="st0" d="M39.05,14.3c5.83,5.7-8.24,11.18-14.86,10.46C29.74,21.99,33.12,9.02,39.05,14.3z"/>
		<path class="st0" d="M59.09,65.92c-4.3,16.45-28.76-3.35-34.31-16.07C35.54,57.01,62.52,49.73,59.09,65.92z"/>
		<path class="st1" d="M59.73,31.96c0.7-7.09,6.38-7.24,9.76-13.51c-5,5.67-9.34,5.71-11.04,11.62C53.99,23.84,47.94,18.53,39.82,15
			c-0.1-0.09-0.2-0.16-0.29-0.16c-0.02,0-0.03,0.01-0.05,0.01c-0.28-0.12-0.53-0.26-0.82-0.37c0.21,0.14,0.4,0.29,0.6,0.43
			c-1.85,0.45-2.54,2.05-4.24,2.73c1.98-0.53,2.65-2.21,4.83-2.31c19.25,13.35,23.92,35.23,24.22,52.11
			c-5.07-4.86-10.09-2.85-18.71-6.43c7.33,5.24,13.89,2.44,18.72,9.55c-0.15,12.02-2.32,20.8-2.32,20.8h7.91
			C69.68,91.36,75.32,55.94,59.73,31.96z"/>
	</g>
	<g>
		<path class="st2" d="M115.18,130H14.82c0-22.85,22.47-41.37,50.18-41.37C92.71,88.63,115.18,107.15,115.18,130z"/>
		<path class="st3" d="M53.04,118.18c0,2.25-3.34,4.07-7.46,4.07c-4.12,0-7.46-1.82-7.46-4.07c0-2.25,3.34-4.07,7.46-4.07
			C49.7,114.11,53.04,115.94,53.04,118.18z"/>
		<path class="st3" d="M87.49,107.99c0,3.38-4.02,6.13-8.99,6.13s-8.99-2.74-8.99-6.13c0-3.38,4.02-6.13,8.99-6.13
			S87.49,104.6,87.49,107.99z"/>
	</g>
</g>
</svg>
