<svg enable-background="new 0 0 130 130" viewBox="0 0 130 130" xmlns="http://www.w3.org/2000/svg"><path d="m23.08 0s-12-.59-5.63 35.99c0 0 4.28 12.41-1.12 20.42h79.57v-56.41z" fill="#afcdfb"/><path d="m28.13 21.65h83.08v108.35h-83.08z" fill="#6fa3d8"/><path d="m30.84 21.65h81.69v108.35h-81.69z" fill="#9abcef"/><path d="m112.53 21.65h-81.69c.45-6.18-.23-10.66-1.32-13.89-2.09-6.2-5.7-7.76-5.7-7.76h77.04c6.58 0 11.67 3.96 13.06 9.22.05.2.1.39.14.59 1.32 6.02-1.47 11.73-1.53 11.84z" fill="#e9f3fe"/><path d="m112.53 21.65h-81.69c.45-6.18-.23-10.66-1.32-13.89 8.35 1.53 29.02 4.79 51.15 4.24 14.32-.36 25.63-1.31 33.38-2.19 1.33 6.02-1.46 11.73-1.52 11.84z" fill="#d8e8fd"/><g fill="#fff"><path d="m90.75 46.63h-42.91c-.56 0-1.02-.46-1.02-1.02 0-.56.46-1.02 1.02-1.02h42.91c.56 0 1.02.46 1.02 1.02-.01.57-.47 1.02-1.02 1.02z"/><path d="m73.81 50.05h-25.97c-.56 0-1.02-.46-1.02-1.02 0-.56.46-1.02 1.02-1.02h25.97c.56 0 1.02.46 1.02 1.02-.01.56-.46 1.02-1.02 1.02z"/><path d="m42.65 49.72v-4.15h-.55c-.33 0-.5-.14-.5-.41 0-.2.13-.34.39-.42.13-.04.34-.08.63-.1s.52-.03.7-.03c.17 0 .28.03.32.1s.07.24.07.53v4.49h.56c.37 0 .55.16.55.47 0 .33-.18.5-.55.5h-2.27c-.16 0-.29-.04-.4-.13s-.16-.21-.16-.36c0-.32.19-.48.56-.48h.65z"/><path d="m90.75 68.03h-42.91c-.56 0-1.02-.46-1.02-1.02 0-.56.46-1.02 1.02-1.02h42.91c.56 0 1.02.46 1.02 1.02-.01.56-.47 1.02-1.02 1.02z"/><path d="m73.81 71.45h-25.97c-.56 0-1.02-.46-1.02-1.02 0-.56.46-1.02 1.02-1.02h25.97c.56 0 1.02.46 1.02 1.02-.01.56-.46 1.02-1.02 1.02z"/><path d="m44.92 71.04c0 .28-.19.41-.58.41h-2.41c-.35 0-.52-.14-.52-.42 0-.09.05-.19.14-.31.14-.16.34-.39.6-.7.4-.5.74-.94 1.01-1.31.09-.12.22-.31.4-.56.14-.25.21-.46.21-.63 0-.19-.06-.35-.18-.47s-.28-.19-.47-.19-.35.06-.48.18c-.09.08-.17.22-.22.44-.07.28-.11.44-.13.48-.07.16-.19.23-.36.23-.15 0-.26-.05-.34-.16-.08-.09-.12-.22-.12-.37 0-.17.03-.34.08-.52.12-.38.33-.67.62-.87.28-.18.62-.27 1.03-.27.44 0 .82.13 1.12.4.31.28.46.65.46 1.09 0 .33-.11.67-.33 1.01-.12.19-.37.53-.76 1.01-.2.25-.5.61-.92 1.09h1.58c.38.01.57.15.57.44z"/><path d="m90.75 85.88h-42.91c-.56 0-1.02-.46-1.02-1.02 0-.56.46-1.02 1.02-1.02h42.91c.56 0 1.02.46 1.02 1.02-.01.57-.47 1.02-1.02 1.02z"/><path d="m73.81 89.3h-25.97c-.56 0-1.02-.46-1.02-1.02 0-.56.46-1.02 1.02-1.02h25.97c.56 0 1.02.46 1.02 1.02-.01.56-.46 1.02-1.02 1.02z"/><path d="m44.92 87.6c0 .52-.18.94-.55 1.25-.34.3-.78.45-1.31.45-.41 0-.76-.1-1.05-.29-.46-.31-.69-.68-.69-1.12 0-.12.04-.23.12-.32s.18-.13.31-.13.25.09.37.26c.18.29.29.45.32.48.16.18.38.26.64.26.35 0 .6-.13.75-.39.07-.13.1-.29.1-.5 0-.49-.29-.76-.86-.82-.32-.03-.49-.17-.49-.41 0-.18.09-.31.28-.38.35-.13.53-.2.54-.2.19-.12.28-.34.28-.65 0-.18-.05-.33-.16-.44s-.26-.16-.44-.16c-.23 0-.41.05-.54.16-.11.1-.2.26-.28.49-.06.18-.17.26-.34.26-.12 0-.22-.05-.3-.16s-.12-.22-.12-.34c0-.15.04-.31.13-.46.14-.26.35-.46.64-.61.26-.13.55-.2.87-.2.42 0 .78.13 1.06.39s.42.6.42 1.02c0 .51-.21.9-.63 1.2.63.23.93.69.93 1.36z"/><path d="m85.57 28.84h-26.31c-.65 0-1.18-.53-1.18-1.18 0-.65.53-1.18 1.18-1.18h26.31c.65 0 1.18.53 1.18 1.18 0 .65-.53 1.18-1.18 1.18z"/><path d="m92.79 32.48h-40.76c-.65 0-1.18-.53-1.18-1.18 0-.65.53-1.18 1.18-1.18h40.76c.65 0 1.18.53 1.18 1.18 0 .65-.53 1.18-1.18 1.18z"/></g><path d="m69.25 57.59c-8.9 0-17.34-1.12-23.64-2.71-6.36-1.61-9.79-4.25-9.79-6.59 0-2.12 2.79-4.07 8.07-5.64-5.06 1.5-7.77 3.71-7.77 5.64 0 2.14 3.51 4.25 9.63 5.8 6.27 1.59 14.62 2.47 23.49 2.47 8.88 0 17.22-.88 23.49-2.47 6.12-1.55 9.63-3.67 9.63-5.8 0-2.26-3.7-5.08-9.64-7.34-6.76-2.58-15.1-3.53-23.48-3.53-15.72 0-22.2 1.84-27.81 4.14 5.64-2.31 12.03-4.93 27.81-4.93 8.41 0 16.78 1.42 23.58 4.01 6.07 2.31 9.85 5.25 9.85 7.65 0 2.34-3.5 4.51-9.86 6.13-6.29 1.59-14.66 3.17-23.56 3.17z" fill="#c65447"/><path d="m94.01 106.44h-50.23c-.34 0-.61-.28-.61-.61 0-.34.28-.61.61-.61h50.23c.34 0 .61.28.61.61 0 .33-.27.61-.61.61z" fill="#fff"/><path d="m94.01 108.88h-50.23c-.34 0-.61-.28-.61-.61 0-.34.28-.61.61-.61h50.23c.34 0 .61.28.61.61 0 .34-.27.61-.61.61z" fill="#fff"/><path d="m94.01 111.59h-50.23c-.34 0-.61-.28-.61-.61 0-.34.28-.61.61-.61h50.23c.34 0 .61.28.61.61 0 .34-.27.61-.61.61z" fill="#fff"/><path d="m87.37 114.31h-43.6c-.34 0-.61-.28-.61-.61 0-.34.28-.61.61-.61h43.6c.34 0 .61.28.61.61.01.33-.27.61-.61.61z" fill="#fff"/></svg>